<?xml version="1.0" encoding="UTF-8"?>
<svg id="a" data-name="Layer 1" xmlns="http://www.w3.org/2000/svg" viewBox="0 0 800 800">
  <defs>
    <style>
      .b {
        fill: #ff7a00;
        stroke-width: 0px;
      }
    </style>
  </defs>
  <path class="b" d="M400,787.5c-214.06,0-387.5-173.44-387.5-387.5S185.94,12.5,400,12.5s387.5,173.44,387.5,387.5-173.44,387.5-387.5,387.5ZM581.25,331.25h-181.25v-110.78c0-16.72-20.31-25.16-32.03-13.28l-178.59,179.53c-7.34,7.34-7.34,19.06,0,26.41l178.59,179.53c11.88,11.88,32.03,3.44,32.03-13.28v-110.62h181.25c10.31,0,18.75-8.44,18.75-18.75v-100c0-10.31-8.44-18.75-18.75-18.75Z"/>
</svg>