<?xml version="1.0" encoding="UTF-8"?>
<svg id="a" data-name="Layer 1" xmlns="http://www.w3.org/2000/svg" viewBox="0 0 800 800">
  <defs>
    <style>
      .b {
        fill: #ff7a00;
        stroke-width: 0px;
      }
    </style>
  </defs>
  <path class="b" d="M400,12.5c214.06,0,387.5,173.44,387.5,387.5s-173.44,387.5-387.5,387.5S12.5,614.06,12.5,400,185.94,12.5,400,12.5ZM218.75,468.75h181.25v110.78c0,16.72,20.31,25.16,32.03,13.28l178.59-179.53c7.34-7.34,7.34-19.06,0-26.41l-178.59-179.69c-11.88-11.87-32.03-3.44-32.03,13.28v110.78h-181.25c-10.31,0-18.75,8.44-18.75,18.75v100c0,10.31,8.44,18.75,18.75,18.75Z"/>
</svg>