<?xml version="1.0" encoding="UTF-8"?>
<svg xmlns="http://www.w3.org/2000/svg" viewBox="0 0 88.83 36">
  <defs>
    <style>
      .cls-1 {
        fill: none;
      }

      .cls-2 {
        fill: #f8aab8;
      }

      .cls-3 {
        fill: #005541;
      }

      .cls-4 {
        fill: #ff9247;
      }

      .cls-5 {
        fill: #d51b2f;
      }

      .cls-6 {
        fill: #2f2418;
      }
    </style>
  </defs>
  <g id="Layer_1" data-name="Layer 1">
    <g>
      <path class="cls-4" d="m30.42,4.1c.3.3.46.71.46,1.21,0,.59-.17,1.13-.52,1.62-.35.49-.82.74-1.41.74-.44,0-.75-.13-.95-.38-.2-.25-.3-.55-.3-.9s.1-.71.3-1.08c.2-.37.45-.7.75-.98h-.1c-1.07.02-1.96.58-2.68,1.67-.96,1.44-1.96,3.97-3.01,7.61-1.05,3.63-2.24,8.59-3.57,14.87h-.72L11.22,7.4c-1.07,5.47-2.08,10.1-3.03,13.87-.95,3.77-1.86,6.24-2.73,7.39-.48.63-.99,1.13-1.52,1.51-.54.37-1.19.56-1.98.56-1.31,0-1.96-.57-1.96-1.7,0-.59.17-1.12.52-1.6.35-.48.82-.72,1.41-.72.44,0,.75.13.95.38.2.25.29.55.29.9s-.1.71-.29,1.08c-.2.37-.45.7-.75.98h.1c1.11-.02,2.02-.59,2.72-1.7.81-1.29,1.65-3.59,2.52-6.9.87-3.31,1.82-7.59,2.85-12.82.13-.63.2-1.12.2-1.47,0-.52-.17-.87-.52-1.03s-1.01-.27-2-.31l.16-.65c.7.07,1.67.1,2.91.1,1,0,1.89-.03,2.65-.1l6.18,18.09c.94-4.19,1.85-7.81,2.75-10.88.89-3.06,1.81-5.27,2.75-6.62.96-1.4,2.14-2.09,3.53-2.09.7,0,1.2.15,1.5.46Z"/>
      <path class="cls-3" d="m27.71,13.06c0-.55-.24-.82-.72-.82s-.95.26-1.34.79-.81,1.37-1.24,2.55l-.46,1.21h-.62l.85-2.39c.44-1.24,1.02-2.12,1.75-2.62s1.5-.75,2.31-.75c1.44,0,2.16.69,2.16,2.06,0,.72-.17,1.56-.52,2.52l-3.5,9.91c-.17.52-.26.93-.26,1.21,0,.55.26.82.79.82.46,0,.88-.25,1.28-.75s.82-1.36,1.28-2.59l.46-1.21h.62l-.85,2.39c-.44,1.2-1.01,2.06-1.72,2.58-.71.52-1.48.79-2.31.79-1.53,0-2.29-.67-2.29-2,0-.63.2-1.49.59-2.59l3.5-9.91c.17-.52.26-.93.26-1.21Z"/>
      <path class="cls-2" d="m41.25,11.04c-1.02.09-1.98.64-2.89,1.62-1.03,1.09-2.04,2.86-3.08,5.29l3.41-11.92c-.79.25-1.8.41-2.97.47l-.14.43c-.68,1.64-1.36,3.03-2.04,4.15-.68,1.12-1.36,2.07-2.05,2.86-.38.41-.79.87-1.25,1.34-.14.13-.27.3-.41.43-.3.3-.6.6-.93.93l.39.41s.08-.08.11-.08c.13-.17.27-.3.4-.44,1.07-1.04,1.94-2.02,2.7-2.97.88-1.12,1.64-2.4,2.29-3.87l-6.1,21.83c-.22.77-.49,1.31-.85,1.59-.35.3-.93.43-1.72.43l-.19.68c1.83-.08,3.06-.13,3.63-.13s1.8.05,3.71.11l.68.02.19-.68c-.87,0-1.58-.11-2.05-.35-.49-.25-.73-.66-.73-1.23,0-.25.05-.52.13-.76l1.26-4.34c.22.6.57,1.07,1.03,1.39.5.36,1.01.52,1.61.52,1.91,0,3.57-.71,5.05-2.15,1.44-1.42,2.59-3.17,3.35-5.24.19-.5.36-.99.51-1.47l-3.05-8.87Zm-.05,9.53c-.65,2.07-1.5,3.81-2.54,5.26-1.03,1.47-2.15,2.18-3.29,2.18-.55,0-1.01-.14-1.42-.47-.38-.3-.71-.79-.98-1.5l.84-2.97c.66-1.99,1.37-3.81,2.21-5.5.82-1.67,1.64-3,2.45-4.01.82-.98,1.56-1.47,2.16-1.47.49,0,.84.24,1.12.71.27.49.4,1.19.4,2.12,0,1.69-.3,3.57-.95,5.65Z"/>
      <path class="cls-6" d="m58.16,12.2c-.63-.77-1.45-1.18-2.51-1.18-1.15,0-2.21.55-3.22,1.64-1.03,1.09-2.04,2.86-3.08,5.29l3.41-11.92c-.79.25-1.8.41-2.97.47l-.14.43c-.68,1.64-1.36,3.03-2.04,4.15-.69,1.12-1.37,2.07-2.05,2.86-.19.22-.41.46-.63.68.03.25.06.52.06.79.57-.62,1.12-1.25,1.58-1.85.87-1.12,1.64-2.4,2.29-3.87l-3.62,12.95,1.52,4.43.06-.21c.21.6.54,1.07,1.03,1.39.49.36,1.01.52,1.61.52,1.88,0,3.57-.71,5.04-2.15,1.45-1.42,2.57-3.17,3.36-5.24.79-2.04,1.17-3.98,1.17-5.72,0-1.53-.3-2.7-.87-3.46Zm-2.89,8.37c-.66,2.07-1.5,3.81-2.54,5.26-1.06,1.47-2.15,2.18-3.3,2.18-.54,0-1.03-.14-1.41-.47-.39-.3-.71-.79-.99-1.5l.85-2.97c.63-1.99,1.36-3.81,2.21-5.5.82-1.67,1.63-3,2.45-4.01.82-.98,1.53-1.47,2.15-1.47.47,0,.85.24,1.12.71.27.49.41,1.19.41,2.12,0,1.69-.33,3.57-.95,5.65Z"/>
      <path class="cls-4" d="m48.21,33.54l-.19.68-.69-.02c-1.9-.06-3.13-.11-3.7-.11s-1.8.05-3.63.13l.19-.68c.79,0,1.36-.13,1.72-.43.35-.28.63-.82.84-1.59l2.49-8.88,1.52,4.43-1.2,4.13c-.08.24-.13.51-.13.76,0,.57.24.98.73,1.23.46.24,1.15.35,2.05.35Z"/>
      <path class="cls-6" d="m59.24,18.09c.76-1.97,1.86-3.64,3.3-5.01,1.44-1.36,3.11-2.04,5.01-2.04,1.4,0,2.49.43,3.29,1.29s1.19,2.14,1.19,3.84-.38,3.57-1.14,5.55c-.76,1.97-1.86,3.64-3.3,5.01s-3.11,2.04-5.01,2.04c-1.4,0-2.49-.43-3.29-1.29s-1.19-2.14-1.19-3.84.38-3.57,1.14-5.55Zm4.96-4.27c-.99,1.42-1.79,3.19-2.39,5.32-.6,2.13-.9,4.17-.9,6.13,0,.98.15,1.7.46,2.16.3.46.77.69,1.41.69,1.11,0,2.16-.71,3.16-2.13.99-1.42,1.79-3.19,2.39-5.32.6-2.13.9-4.17.9-6.13,0-.98-.15-1.7-.46-2.16-.31-.46-.77-.69-1.41-.69-1.11,0-2.16.71-3.16,2.13Z"/>
      <path class="cls-6" d="m86.91,15.98c.33-.94.5-1.77.5-2.49,0-1.64-.89-2.45-2.65-2.45-1.53,0-2.93.68-4.21,2.06-1.27,1.37-2.61,3.7-4.01,7l1.15-4.48c.3-1.18.46-2.07.46-2.65,0-.62-.15-1.09-.44-1.43-.3-.34-.8-.5-1.49-.5-1.81,0-3.11,1.12-3.9,3.36l-.33.96-.48,1.43h.62l.42-1.21c.46-1.26.87-2.13,1.25-2.61.37-.48.79-.72,1.27-.72s.72.27.72.81c0,.24-.07.65-.23,1.21l-3.92,14.04h2.84l.59-2.39c.74-2.57,1.63-4.92,2.65-7.03,1.03-2.12,2.07-3.78,3.13-4.99,1.05-1.21,2-1.82,2.83-1.82.69,0,1.04.38,1.04,1.15,0,.35-.11.88-.32,1.6l-3.11,9.36c-.37,1.11-.56,1.96-.56,2.55,0,.46.09.82.26,1.08.4.63,1.08.95,2.06.95,1.69,0,2.93-.93,3.73-2.77h-.74c-.17.34-.35.61-.52.82-.4.49-.82.74-1.26.74-.52,0-.78-.27-.78-.79,0-.3.09-.72.26-1.24l3.17-9.55Z"/>
      <path class="cls-6" d="m87.83,23.01l-.82,2.39c-.07.21-.15.41-.23.6h-.74c.24-.46.49-1.06.74-1.78l.43-1.21h.62Z"/>
    </g>
    <circle class="cls-5" cx="36.83" cy="2" r="2"/>
    <path class="cls-6" d="m44.99,15.41v.25c0,.41-.02.82-.07,1.25-.1.95-.3,1.96-.62,3l-3.05-8.87c.11-.01.22-.02.33-.02.28,0,.55.03.8.09.69.15,1.27.52,1.71,1.09.46.57.74,1.39.84,2.42.03.25.06.52.06.79Z"/>
    <line class="cls-1" x1="45.24" y1="22.64" x2="44.3" y2="19.91"/>
    <line class="cls-1" x1="49.83" y1="36" x2="46.76" y2="27.07"/>
    <line class="cls-1" x1="41.25" y1="11.04" x2="38.83" y2="4"/>
  </g>
  <g id="Layer_2" data-name="Layer 2">
    <path class="cls-3" d="m27.94,13.15c0-.55-.24-.82-.72-.82s-.95.26-1.34.79-.81,1.37-1.24,2.55l-.46,1.21h-.62l.85-2.39c.44-1.24,1.02-2.12,1.75-2.62s1.5-.75,2.31-.75c1.44,0,2.16.69,2.16,2.06,0,.72-.17,1.56-.52,2.52l-3.5,9.91c-.17.52-.26.93-.26,1.21,0,.55.26.82.79.82.46,0,.88-.25,1.28-.75s.82-1.36,1.28-2.59l.46-1.21h.62l-.85,2.39c-.44,1.2-1.01,2.06-1.72,2.58-.71.52-1.48.79-2.31.79-1.53,0-2.29-.67-2.29-2,0-.63.2-1.49.59-2.59l3.5-9.91c.17-.52.26-.93.26-1.21Z"/>
  </g>
</svg>